<?xml version="1.0" standalone="no"?>
<!DOCTYPE svg PUBLIC "-//W3C//DTD SVG 20010904//EN"
 "http://www.w3.org/TR/2001/REC-SVG-20010904/DTD/svg10.dtd">
<svg version="1.0" xmlns="http://www.w3.org/2000/svg"
 width="512.000000pt" height="512.000000pt" viewBox="0 0 512.000000 512.000000"
 preserveAspectRatio="xMidYMid meet">
<metadata>
Created by potrace 1.11, written by Peter Selinger 2001-2013
</metadata>
<g transform="translate(0.000000,512.000000) scale(0.100000,-0.100000)"
fill="#000000" stroke="none">
<path d="M2205 5060 c-141 -22 -292 -59 -436 -106 -63 -21 -116 -38 -119 -39
-3 -1 -22 -9 -44 -18 -21 -9 -40 -17 -42 -17 -6 0 -118 -50 -134 -60 -8 -5
-34 -18 -58 -29 -61 -29 -204 -116 -287 -175 -145 -104 -194 -145 -330 -281
-123 -123 -172 -178 -238 -269 -20 -28 -42 -57 -48 -64 -20 -24 -120 -185
-150 -242 -16 -30 -33 -62 -38 -70 -34 -55 -135 -309 -166 -415 -32 -111 -72
-287 -81 -365 -3 -25 -8 -56 -11 -70 -8 -49 -11 -456 -2 -530 14 -127 21 -175
25 -181 2 -4 6 -24 9 -45 4 -22 17 -82 31 -134 14 -52 27 -102 29 -110 4 -18
53 -157 65 -185 4 -11 14 -35 22 -54 7 -19 32 -74 55 -123 23 -49 43 -92 43
-96 1 -4 7 -14 13 -22 7 -8 21 -31 31 -50 44 -82 189 -291 239 -345 10 -11 33
-37 50 -59 52 -63 186 -193 277 -270 47 -39 91 -77 98 -84 7 -6 17 -12 22 -12
5 0 16 -7 24 -16 30 -29 192 -132 296 -187 214 -113 442 -195 695 -252 168
-37 204 -40 520 -40 310 0 359 4 520 39 103 22 335 90 360 105 6 3 15 6 21 7
25 4 215 89 312 140 299 156 613 420 811 679 245 321 406 674 487 1070 8 39
17 81 21 95 10 39 13 670 4 720 -5 25 -11 59 -14 75 -46 281 -169 614 -313
852 -24 39 -44 76 -44 82 0 6 -4 11 -8 11 -4 0 -16 13 -25 30 -57 96 -231 306
-331 399 -21 20 -55 51 -74 70 -20 19 -72 63 -117 98 -44 35 -87 70 -95 76
-86 70 -340 214 -490 278 -179 76 -512 172 -640 185 -30 3 -73 7 -95 9 -22 3
-152 7 -290 9 -203 3 -271 0 -360 -14z m-320 -1200 c8 -13 111 -72 121 -70 4
1 10 -4 14 -11 5 -7 29 -24 53 -38 51 -29 284 -172 349 -213 24 -15 50 -31 58
-35 8 -4 67 -40 131 -80 64 -40 121 -73 128 -73 6 0 11 -4 11 -8 0 -5 17 -17
38 -28 20 -10 39 -21 42 -24 3 -3 14 -10 25 -16 50 -27 70 -40 89 -56 11 -10
23 -18 27 -18 7 0 176 -103 195 -119 7 -5 15 -7 18 -4 3 4 6 2 6 -4 0 -6 14
-16 30 -23 17 -7 30 -15 30 -19 0 -3 18 -15 40 -25 22 -11 40 -23 40 -28 0 -5
5 -6 10 -3 6 3 10 1 10 -4 0 -6 7 -11 15 -11 8 0 15 -4 15 -10 0 -5 8 -10 18
-10 11 0 27 -9 37 -20 10 -11 20 -18 23 -16 4 5 15 -3 47 -32 8 -7 15 -11 15
-7 0 3 6 1 13 -5 19 -16 87 -60 93 -60 3 0 25 -13 48 -30 24 -16 46 -26 50
-23 3 4 6 1 6 -6 0 -6 11 -16 25 -21 14 -5 31 -14 38 -20 17 -15 77 -53 110
-69 15 -8 27 -18 27 -23 0 -4 5 -8 11 -8 15 0 98 -53 99 -63 0 -4 -11 -13 -25
-19 -14 -6 -25 -14 -25 -18 0 -4 -18 -15 -40 -25 -22 -10 -40 -21 -40 -24 0
-3 -18 -15 -40 -25 -22 -11 -40 -23 -40 -28 0 -4 -7 -8 -15 -8 -8 0 -15 -5
-15 -12 0 -6 -3 -8 -6 -5 -4 4 -25 -7 -47 -23 -23 -17 -47 -30 -54 -30 -7 0
-13 -4 -13 -10 0 -5 -4 -10 -9 -10 -5 0 -36 -17 -68 -37 -76 -49 -89 -57 -145
-90 -27 -16 -48 -31 -48 -35 0 -5 -9 -8 -19 -8 -10 0 -22 -7 -25 -16 -3 -8
-10 -12 -16 -9 -5 3 -10 2 -10 -4 0 -6 -11 -13 -25 -17 -14 -3 -25 -10 -25
-14 0 -4 -15 -15 -32 -25 -77 -40 -88 -47 -88 -56 0 -5 -8 -9 -19 -9 -10 0
-31 -12 -47 -27 -16 -15 -31 -27 -34 -26 -14 0 -40 -10 -40 -17 0 -4 -15 -15
-32 -24 -18 -9 -46 -26 -63 -36 -16 -11 -43 -27 -60 -36 -16 -9 -55 -34 -86
-55 -32 -21 -59 -36 -61 -33 -3 2 -13 -5 -23 -16 -10 -11 -24 -20 -32 -20 -7
0 -13 -4 -13 -9 0 -5 -8 -11 -17 -15 -20 -6 -54 -26 -123 -71 -25 -16 -48 -28
-52 -27 -5 1 -8 -2 -8 -8 0 -5 -7 -10 -15 -10 -8 0 -15 -4 -15 -10 0 -5 -7
-10 -15 -10 -8 0 -15 -5 -15 -12 0 -6 -3 -9 -6 -5 -4 3 -21 -5 -39 -18 -17
-14 -37 -25 -43 -25 -7 0 -12 -4 -12 -10 0 -5 -7 -10 -15 -10 -8 0 -15 -5 -15
-10 0 -6 -3 -9 -7 -8 -5 1 -19 -5 -33 -14 -42 -27 -292 -179 -337 -205 -24
-13 -43 -20 -44 -16 0 4 -2 55 -2 113 -1 58 -5 110 -10 117 -4 6 -4 14 1 17 6
3 7 122 2 271 -1 6 1 27 3 48 2 20 0 37 -5 37 -5 0 -5 8 0 18 4 9 7 28 5 42
-7 58 -8 90 -3 90 3 0 6 9 6 20 0 11 -4 20 -8 20 -5 0 -4 8 1 18 6 10 6 24 1
32 -5 8 -6 19 -3 24 8 13 10 56 3 56 -7 0 -5 54 4 68 3 6 2 13 -4 17 -6 4 -7
12 -3 18 11 17 11 30 1 44 -5 6 -5 14 2 18 6 4 7 12 1 23 -6 10 -6 23 0 34 5
9 6 19 1 22 -9 5 -8 47 1 63 4 7 3 14 -3 18 -6 4 -7 12 -3 18 11 17 11 30 1
44 -5 6 -5 14 2 18 6 4 7 12 1 23 -6 10 -6 23 0 34 5 10 6 18 2 18 -10 0 -9
52 1 68 3 6 2 14 -4 17 -7 4 -8 11 -1 18 16 20 16 23 3 40 -9 10 -10 17 -2 22
6 4 7 12 1 23 -6 10 -6 23 0 34 5 9 6 19 1 22 -9 5 -8 47 1 63 4 7 3 15 -3 18
-7 4 -7 12 -2 18 10 14 10 27 -1 44 -4 6 -3 14 3 18 7 4 7 12 0 26 -8 14 -7
19 1 19 8 0 8 4 -1 15 -7 8 -8 15 -3 15 5 0 9 9 9 20 0 11 -4 20 -8 20 -5 0
-4 9 2 20 8 14 8 20 0 20 -6 0 -8 5 -4 12 11 18 11 81 0 96 -5 8 -4 12 4 12
10 0 10 3 0 15 -7 8 -9 15 -4 15 11 0 12 305 2 316 -4 4 -4 12 0 18 4 6 8 52
8 101 3 134 3 135 18 135 8 0 18 -5 21 -10z"/>
</g>
</svg>
